<svg width="80" height="80" viewBox="0 0 80 80" fill="none" xmlns="http://www.w3.org/2000/svg">
<g clip-path="url(#clip0_569_4776)">
<path d="M24.8102 17.833C26.9402 17.833 28.9102 17.9997 30.7102 18.493C32.5135 18.823 33.9902 19.483 35.3002 20.3063C36.6135 21.133 37.5968 22.2863 38.2502 23.7697C38.9068 25.253 39.2368 27.0697 39.2368 29.0463C39.2368 31.3563 38.7435 33.333 37.5968 34.8163C36.6135 36.303 34.9735 37.6197 33.0068 38.6097C35.7935 39.4363 37.9235 40.9197 39.2368 42.8997C40.5468 44.8763 41.3668 47.3497 41.3668 50.153C41.3668 52.463 40.8735 54.4397 40.0535 56.0897C39.2368 57.7397 37.9235 59.223 36.4468 60.213C34.8427 61.2741 33.0696 62.0541 31.2035 62.5197C29.2368 63.0163 27.2702 63.3463 25.3035 63.3463H3.3335V17.833H24.8102ZM23.4968 36.2997C25.3002 36.2997 26.7768 35.8063 27.9235 34.983C29.0702 34.1597 29.5635 32.673 29.5635 30.8597C29.5635 29.8697 29.3968 28.883 29.0702 28.223C28.7435 27.563 28.2502 27.0663 27.5968 26.573C26.9402 26.243 26.2835 25.913 25.4635 25.7497C24.6435 25.583 23.8268 25.583 22.8402 25.583H13.3335V36.303H23.5002L23.4968 36.2997ZM23.9902 55.7597C24.9735 55.7597 25.9568 55.593 26.7768 55.4297C27.5968 55.263 28.4168 54.9363 29.0702 54.4397C29.7381 53.9571 30.2969 53.3393 30.7102 52.6263C31.0368 51.803 31.3668 50.813 31.3668 49.6597C31.3668 47.3497 30.7102 45.6997 29.4002 44.5463C28.0868 43.5563 26.2835 43.063 24.1535 43.063H13.3335V55.763L23.9902 55.7597ZM55.6302 55.593C56.9402 56.913 58.9068 57.573 61.5302 57.573C63.3335 57.573 64.9735 57.0797 66.2835 56.2563C67.5968 55.2663 68.4168 54.2763 68.7435 53.2897H76.7768C75.4635 57.243 73.4968 60.0463 70.8768 61.863C68.2502 63.5097 65.1368 64.4997 61.3668 64.4997C58.9547 64.5071 56.5629 64.0593 54.3168 63.1797C52.2957 62.4217 50.4934 61.1759 49.0702 59.553C47.5478 58.0349 46.4225 56.1655 45.7935 54.1097C44.9735 51.9663 44.6435 49.6597 44.6435 47.0197C44.6435 44.5463 44.9735 42.2397 45.7935 40.093C46.5833 38.0276 47.751 36.1274 49.2368 34.4897C50.7338 32.9525 52.5144 31.7198 54.4802 30.8597C56.6692 29.9799 59.0076 29.5317 61.3668 29.5397C64.1535 29.5397 66.6135 30.0363 68.7435 31.1897C70.8768 32.343 72.5135 33.663 73.8235 35.643C75.1368 37.4563 76.1235 39.5997 76.7768 41.9097C77.1035 44.2163 77.2668 46.5263 77.1035 49.163H53.3335C53.3335 51.803 54.3168 54.2763 55.6302 55.5963V55.593ZM65.9568 38.2797C64.8102 37.1263 63.0068 36.4663 60.8735 36.4663C59.4002 36.4663 58.2502 36.7997 57.2668 37.293C56.2835 37.7863 55.6302 38.4463 54.9735 39.1063C54.369 39.7436 53.9686 40.5468 53.8235 41.413C53.6602 42.2397 53.4968 42.8997 53.4968 43.5563H68.2502C67.9235 41.083 67.1035 39.4363 65.9568 38.2797ZM51.5302 20.9663H69.8902V25.4197H51.5335V20.9663H51.5302Z" fill="black"/>
</g>
<defs>
<clipPath id="clip0_569_4776">
<rect width="80" height="80" fill="white"/>
</clipPath>
</defs>
</svg>
 