<svg width="80" height="80" viewBox="0 0 80 80" fill="none" xmlns="http://www.w3.org/2000/svg">
<path d="M63.3332 13.3337H56.6665V10.0003C56.6665 9.11627 56.3153 8.26842 55.6902 7.6433C55.0651 7.01818 54.2172 6.66699 53.3332 6.66699C52.4491 6.66699 51.6013 7.01818 50.9762 7.6433C50.351 8.26842 49.9998 9.11627 49.9998 10.0003V13.3337H29.9998V10.0003C29.9998 9.11627 29.6486 8.26842 29.0235 7.6433C28.3984 7.01818 27.5506 6.66699 26.6665 6.66699C25.7824 6.66699 24.9346 7.01818 24.3095 7.6433C23.6844 8.26842 23.3332 9.11627 23.3332 10.0003V13.3337H16.6665C14.0143 13.3337 11.4708 14.3872 9.59544 16.2626C7.72007 18.138 6.6665 20.6815 6.6665 23.3337V63.3337C6.6665 65.9858 7.72007 68.5294 9.59544 70.4047C11.4708 72.2801 14.0143 73.3337 16.6665 73.3337H63.3332C65.9853 73.3337 68.5289 72.2801 70.4042 70.4047C72.2796 68.5294 73.3332 65.9858 73.3332 63.3337V23.3337C73.3332 20.6815 72.2796 18.138 70.4042 16.2626C68.5289 14.3872 65.9853 13.3337 63.3332 13.3337ZM66.6665 63.3337C66.6665 64.2177 66.3153 65.0656 65.6902 65.6907C65.0651 66.3158 64.2172 66.667 63.3332 66.667H16.6665C15.7824 66.667 14.9346 66.3158 14.3095 65.6907C13.6844 65.0656 13.3332 64.2177 13.3332 63.3337V40.0003H66.6665V63.3337ZM66.6665 33.3337H13.3332V23.3337C13.3332 22.4496 13.6844 21.6018 14.3095 20.9766C14.9346 20.3515 15.7824 20.0003 16.6665 20.0003H23.3332V23.3337C23.3332 24.2177 23.6844 25.0656 24.3095 25.6907C24.9346 26.3158 25.7824 26.667 26.6665 26.667C27.5506 26.667 28.3984 26.3158 29.0235 25.6907C29.6486 25.0656 29.9998 24.2177 29.9998 23.3337V20.0003H49.9998V23.3337C49.9998 24.2177 50.351 25.0656 50.9762 25.6907C51.6013 26.3158 52.4491 26.667 53.3332 26.667C54.2172 26.667 55.0651 26.3158 55.6902 25.6907C56.3153 25.0656 56.6665 24.2177 56.6665 23.3337V20.0003H63.3332C64.2172 20.0003 65.0651 20.3515 65.6902 20.9766C66.3153 21.6018 66.6665 22.4496 66.6665 23.3337V33.3337Z" fill="black"/>
</svg>
