<svg width="24" height="24" viewBox="0 0 24 24" fill="none" xmlns="http://www.w3.org/2000/svg">
<path fill-rule="evenodd" clip-rule="evenodd" d="M20.207 6.79279C20.3945 6.98031 20.4998 7.23462 20.4998 7.49979C20.4998 7.76495 20.3945 8.01926 20.207 8.20679L10.707 17.7068C10.5195 17.8943 10.2652 17.9996 10 17.9996C9.73488 17.9996 9.48057 17.8943 9.29304 17.7068L4.79304 13.2068C4.61088 13.0182 4.51009 12.7656 4.51237 12.5034C4.51465 12.2412 4.61981 11.9904 4.80522 11.805C4.99063 11.6196 5.24144 11.5144 5.50364 11.5121C5.76584 11.5098 6.01844 11.6106 6.20704 11.7928L10 15.5858L18.793 6.79279C18.9806 6.60532 19.2349 6.5 19.5 6.5C19.7652 6.5 20.0195 6.60532 20.207 6.79279Z" fill="black"/>
</svg>
