<svg width="80" height="81" viewBox="0 0 80 81" fill="none" xmlns="http://www.w3.org/2000/svg">
<path d="M65.8332 26.3333H50.8332C49.9491 26.3333 49.1013 25.9821 48.4762 25.357C47.851 24.7319 47.4998 23.8841 47.4998 23V8M65.8332 26.3333V69.6667C65.8332 70.5507 65.482 71.3986 64.8569 72.0237C64.2317 72.6488 63.3839 73 62.4998 73H17.4998C16.6158 73 15.7679 72.6488 15.1428 72.0237C14.5177 71.3986 14.1665 70.5507 14.1665 69.6667V11.3333C14.1665 10.4493 14.5177 9.60143 15.1428 8.97631C15.7679 8.35119 16.6158 8 17.4998 8H47.4998M65.8332 26.3333L47.4998 8" stroke="black" stroke-linecap="round" stroke-linejoin="round"/>
<path d="M65.8332 26.3333H50.8332C49.9491 26.3333 49.1013 25.9821 48.4762 25.357C47.851 24.7319 47.4998 23.8841 47.4998 23V8M65.8332 26.3333V69.6667C65.8332 70.5507 65.482 71.3986 64.8569 72.0237C64.2317 72.6488 63.3839 73 62.4998 73H17.4998C16.6158 73 15.7679 72.6488 15.1428 72.0237C14.5177 71.3986 14.1665 70.5507 14.1665 69.6667V11.3333C14.1665 10.4493 14.5177 9.60143 15.1428 8.97631C15.7679 8.35119 16.6158 8 17.4998 8H47.4998M65.8332 26.3333L47.4998 8M24.9998 37.1667H54.9998M24.9998 46.3333H54.9998M24.9998 55.5H43.3332" stroke="black" stroke-width="4" stroke-linecap="round" stroke-linejoin="round"/>
</svg>
