<svg width="24" height="25" viewBox="0 0 24 25" fill="none" xmlns="http://www.w3.org/2000/svg">
<path d="M19.4349 4.56543H4.56494C3.9019 4.56543 3.26602 4.82882 2.79717 5.29766C2.32833 5.7665 2.06494 6.40239 2.06494 7.06543V17.9354C2.06494 18.5985 2.32833 19.2344 2.79717 19.7032C3.26602 20.172 3.9019 20.4354 4.56494 20.4354H19.4349C20.098 20.4354 20.7339 20.172 21.2027 19.7032C21.6715 19.2344 21.9349 18.5985 21.9349 17.9354V7.06543C21.9349 6.40239 21.6715 5.7665 21.2027 5.29766C20.7339 4.82882 20.098 4.56543 19.4349 4.56543ZM4.56494 5.56543H19.4349C19.8135 5.56434 20.1782 5.70744 20.4549 5.96564C20.7317 6.22384 20.8998 6.57775 20.9249 6.95543C18.4549 8.27543 15.9749 9.58543 13.4949 10.9054C13.1594 11.1157 12.8045 11.2932 12.4349 11.4354C12.1448 11.4927 11.8459 11.4875 11.5579 11.4203C11.27 11.353 10.9997 11.2252 10.7649 11.0454C9.34494 10.2954 7.92494 9.53543 6.51494 8.78543C5.37494 8.18543 4.21494 7.57543 3.07494 6.96543C3.09813 6.58615 3.26526 6.23003 3.54219 5.96983C3.81912 5.70962 4.18495 5.56498 4.56494 5.56543ZM20.9349 17.9354C20.9349 18.3333 20.7769 18.7148 20.4956 18.9961C20.2143 19.2774 19.8328 19.4354 19.4349 19.4354H4.56494C4.16712 19.4354 3.78559 19.2774 3.50428 18.9961C3.22298 18.7148 3.06494 18.3333 3.06494 17.9354V8.10043C5.42494 9.34043 7.77494 10.6004 10.1349 11.8504C10.5566 12.1089 11.0105 12.3107 11.4849 12.4504C12.1793 12.5633 12.891 12.4174 13.4849 12.0404C14.9349 11.2804 16.3749 10.5104 17.8249 9.75043C18.8649 9.19043 19.8949 8.65043 20.9349 8.10043V17.9354Z" fill="#F9F9F9"/>
</svg>
