<svg width="80" height="81" viewBox="0 0 80 81" fill="none" xmlns="http://www.w3.org/2000/svg">
<g clip-path="url(#clip0_563_3424)">
<path d="M21.0501 21.0865C20.2168 18.9598 20.2501 16.5298 20.6201 14.3065C23.1674 15.0698 25.5598 16.2772 27.6868 17.8732C28.6201 18.5865 29.8434 18.8165 30.9834 18.4732C33.9087 17.598 36.9468 17.1577 40.0001 17.1665C43.2034 17.1665 46.2468 17.6332 49.0101 18.4698C50.1501 18.8165 51.3734 18.5832 52.3034 17.8698C54.4295 16.2742 56.8206 15.0668 59.3668 14.3032C59.7368 16.5265 59.7668 18.9565 58.9401 21.0798C58.4401 22.3598 58.6901 23.8332 59.6334 24.8798C62.0468 27.5565 63.3334 30.6332 63.3334 33.8332C63.3334 40.8798 56.7668 47.7898 46.2201 49.8932C43.5801 50.4198 42.5501 53.7432 44.5701 55.6465C45.8668 56.8665 46.6668 58.5865 46.6668 60.4998V70.4998C46.6668 71.3839 47.018 72.2318 47.6431 72.8569C48.2682 73.482 49.1161 73.8332 50.0001 73.8332C50.8842 73.8332 51.732 73.482 52.3571 72.8569C52.9823 72.2318 53.3334 71.3839 53.3334 70.4998V60.4998C53.3334 58.5998 52.9334 56.7932 52.2201 55.1565C62.2768 51.6665 70.0001 43.8098 70.0001 33.8332C70.0001 29.3432 68.3868 25.2165 65.7101 21.7598C66.4101 19.0265 66.3468 16.2732 66.0801 14.1598C65.8434 12.2665 65.5134 9.78651 64.1801 8.30651C62.1968 6.10985 58.9135 7.40318 56.5801 8.19985C54.0771 9.04681 51.6957 10.2179 49.4968 11.6832C46.3935 10.8912 43.2028 10.4936 40.0001 10.4998C36.6868 10.4998 33.4901 10.9165 30.4968 11.6865C28.2979 10.2212 25.9165 9.05011 23.4134 8.20318C21.0801 7.40318 17.7934 6.10985 15.8101 8.30651C14.4501 9.81318 14.1668 12.0965 13.9234 14.0365L13.9068 14.1632C13.6401 16.2798 13.5801 19.0365 14.2801 21.7732C11.6134 25.2265 10.0001 29.3465 10.0001 33.8332C10.0001 43.8065 17.7234 51.6665 27.7801 55.1565C27.0522 56.8208 26.6733 58.6167 26.6668 60.4332L26.1068 60.5465C23.7168 60.8765 22.1868 60.5798 21.1468 60.1399C18.6134 59.0665 17.3068 56.3632 15.7134 54.2965C14.7201 53.0132 13.2734 51.4098 11.0534 50.6698C10.638 50.5315 10.1994 50.4764 9.76271 50.5075C9.32598 50.5387 8.89967 50.6556 8.50812 50.8515C7.71734 51.2472 7.11614 51.9409 6.83678 52.7799C6.55742 53.6188 6.62278 54.5344 7.01848 55.3252C7.41418 56.116 8.10781 56.7172 8.94678 56.9965C10.8068 57.6165 12.0934 60.8032 13.2734 62.2165C14.5168 63.7098 16.1701 65.2698 18.5401 66.2765C20.8134 67.2432 23.4834 67.5865 26.6668 67.1965V70.4998C26.6668 71.3839 27.018 72.2318 27.6431 72.8569C28.2682 73.482 29.1161 73.8332 30.0001 73.8332C30.8842 73.8332 31.732 73.482 32.3571 72.8569C32.9823 72.2318 33.3334 71.3839 33.3334 70.4998V60.4998C33.3334 58.5865 34.1334 56.8665 35.4301 55.6465C37.4534 53.7398 36.4201 50.4198 33.7801 49.8932C23.2301 47.7898 16.6668 40.8798 16.6668 33.8332C16.6668 30.6398 17.9501 27.5632 20.3601 24.8865C21.3034 23.8398 21.5501 22.3665 21.0501 21.0865Z" fill="black"/>
</g>
<defs>
<clipPath id="clip0_563_3424">
<rect width="80" height="80" fill="white" transform="translate(0 0.5)"/>
</clipPath>
</defs>
</svg>
