<svg width="48" height="49" viewBox="0 0 48 49" fill="none" xmlns="http://www.w3.org/2000/svg">
<path d="M15.6 4.5H32.4C38.8 4.5 44 9.7 44 16.1V32.9C44 35.9765 42.7779 38.927 40.6024 41.1024C38.427 43.2779 35.4765 44.5 32.4 44.5H15.6C9.2 44.5 4 39.3 4 32.9V16.1C4 13.0235 5.22214 10.073 7.39756 7.89756C9.57298 5.72214 12.5235 4.5 15.6 4.5ZM15.2 8.5C13.2904 8.5 11.4591 9.25857 10.1088 10.6088C8.75857 11.9591 8 13.7904 8 15.7V33.3C8 37.28 11.22 40.5 15.2 40.5H32.8C34.7096 40.5 36.5409 39.7414 37.8912 38.3912C39.2414 37.0409 40 35.2096 40 33.3V15.7C40 11.72 36.78 8.5 32.8 8.5H15.2ZM34.5 11.5C35.163 11.5 35.7989 11.7634 36.2678 12.2322C36.7366 12.7011 37 13.337 37 14C37 14.663 36.7366 15.2989 36.2678 15.7678C35.7989 16.2366 35.163 16.5 34.5 16.5C33.837 16.5 33.2011 16.2366 32.7322 15.7678C32.2634 15.2989 32 14.663 32 14C32 13.337 32.2634 12.7011 32.7322 12.2322C33.2011 11.7634 33.837 11.5 34.5 11.5ZM24 14.5C26.6522 14.5 29.1957 15.5536 31.0711 17.4289C32.9464 19.3043 34 21.8478 34 24.5C34 27.1522 32.9464 29.6957 31.0711 31.5711C29.1957 33.4464 26.6522 34.5 24 34.5C21.3478 34.5 18.8043 33.4464 16.9289 31.5711C15.0536 29.6957 14 27.1522 14 24.5C14 21.8478 15.0536 19.3043 16.9289 17.4289C18.8043 15.5536 21.3478 14.5 24 14.5ZM24 18.5C22.4087 18.5 20.8826 19.1321 19.7574 20.2574C18.6321 21.3826 18 22.9087 18 24.5C18 26.0913 18.6321 27.6174 19.7574 28.7426C20.8826 29.8679 22.4087 30.5 24 30.5C25.5913 30.5 27.1174 29.8679 28.2426 28.7426C29.3679 27.6174 30 26.0913 30 24.5C30 22.9087 29.3679 21.3826 28.2426 20.2574C27.1174 19.1321 25.5913 18.5 24 18.5Z" fill="#F9F9F9"/>
</svg>
