<svg width="80" height="80" viewBox="0 0 80 80" fill="none" xmlns="http://www.w3.org/2000/svg">
<g clip-path="url(#clip0_569_4783)">
<path fill-rule="evenodd" clip-rule="evenodd" d="M16.6667 4.16699C14.2355 4.16699 11.9039 5.13276 10.1849 6.85185C8.46577 8.57093 7.5 10.9025 7.5 13.3337C7.5 15.7648 8.46577 18.0964 10.1849 19.8155C11.9039 21.5346 14.2355 22.5003 16.6667 22.5003C19.0978 22.5003 21.4294 21.5346 23.1485 19.8155C24.8676 18.0964 25.8333 15.7648 25.8333 13.3337C25.8333 10.9025 24.8676 8.57093 23.1485 6.85185C21.4294 5.13276 19.0978 4.16699 16.6667 4.16699ZM12.5 13.3337C12.5 12.2286 12.939 11.1688 13.7204 10.3874C14.5018 9.60598 15.5616 9.16699 16.6667 9.16699C17.7717 9.16699 18.8315 9.60598 19.6129 10.3874C20.3943 11.1688 20.8333 12.2286 20.8333 13.3337C20.8333 14.4387 20.3943 15.4985 19.6129 16.2799C18.8315 17.0613 17.7717 17.5003 16.6667 17.5003C15.5616 17.5003 14.5018 17.0613 13.7204 16.2799C12.939 15.4985 12.5 14.4387 12.5 13.3337ZM7.5 26.667C7.5 26.004 7.76339 25.3681 8.23223 24.8992C8.70107 24.4304 9.33696 24.167 10 24.167H23.3333C23.9964 24.167 24.6323 24.4304 25.1011 24.8992C25.5699 25.3681 25.8333 26.004 25.8333 26.667V70.0003C25.8333 70.6634 25.5699 71.2993 25.1011 71.7681C24.6323 72.2369 23.9964 72.5003 23.3333 72.5003H10C9.33696 72.5003 8.70107 72.2369 8.23223 71.7681C7.76339 71.2993 7.5 70.6634 7.5 70.0003V26.667ZM12.5 29.167V67.5003H20.8333V29.167H12.5ZM30.8333 26.667C30.8333 26.004 31.0967 25.3681 31.5656 24.8992C32.0344 24.4304 32.6703 24.167 33.3333 24.167H46.6667C47.3297 24.167 47.9656 24.4304 48.4344 24.8992C48.9033 25.3681 49.1667 26.004 49.1667 26.667V28.1137L50.6167 27.4903C53.1167 26.4219 55.769 25.7527 58.4767 25.507C67.7267 24.667 75.8333 31.9337 75.8333 41.267V70.0003C75.8333 70.6634 75.5699 71.2993 75.1011 71.7681C74.6323 72.2369 73.9964 72.5003 73.3333 72.5003H60C59.337 72.5003 58.7011 72.2369 58.2322 71.7681C57.7634 71.2993 57.5 70.6634 57.5 70.0003V46.667C57.5 45.5619 57.061 44.5021 56.2796 43.7207C55.4982 42.9393 54.4384 42.5003 53.3333 42.5003C52.2283 42.5003 51.1685 42.9393 50.3871 43.7207C49.6057 44.5021 49.1667 45.5619 49.1667 46.667V70.0003C49.1667 70.6634 48.9033 71.2993 48.4344 71.7681C47.9656 72.2369 47.3297 72.5003 46.6667 72.5003H33.3333C32.6703 72.5003 32.0344 72.2369 31.5656 71.7681C31.0967 71.2993 30.8333 70.6634 30.8333 70.0003V26.667ZM35.8333 29.167V67.5003H44.1667V46.667C44.1667 44.2358 45.1324 41.9043 46.8515 40.1852C48.5706 38.4661 50.9022 37.5003 53.3333 37.5003C55.7645 37.5003 58.0961 38.4661 59.8151 40.1852C61.5342 41.9043 62.5 44.2358 62.5 46.667V67.5003H70.8333V41.267C70.8333 34.9203 65.2967 29.907 58.9333 30.487C56.7473 30.6859 54.6058 31.2257 52.5867 32.087L47.6533 34.2037C47.2728 34.3671 46.8577 34.4335 46.4452 34.3968C46.0327 34.3601 45.6357 34.2215 45.2901 33.9935C44.9444 33.7654 44.6607 33.4551 44.4647 33.0903C44.2686 32.7255 44.1662 32.3178 44.1667 31.9037V29.167H35.8333Z" fill="black"/>
</g>
<defs>
<clipPath id="clip0_569_4783">
<rect width="80" height="80" fill="white"/>
</clipPath>
</defs>
</svg>
