<svg width="48" height="49" viewBox="0 0 48 49" fill="none" xmlns="http://www.w3.org/2000/svg">
<path d="M38 6.5C39.0609 6.5 40.0783 6.92143 40.8284 7.67157C41.5786 8.42172 42 9.43913 42 10.5V38.5C42 39.5609 41.5786 40.5783 40.8284 41.3284C40.0783 42.0786 39.0609 42.5 38 42.5H10C8.93913 42.5 7.92172 42.0786 7.17157 41.3284C6.42143 40.5783 6 39.5609 6 38.5V10.5C6 9.43913 6.42143 8.42172 7.17157 7.67157C7.92172 6.92143 8.93913 6.5 10 6.5H38ZM37 37.5V26.9C37 25.1708 36.3131 23.5124 35.0903 22.2897C33.8676 21.0669 32.2092 20.38 30.48 20.38C28.78 20.38 26.8 21.42 25.84 22.98V20.76H20.26V37.5H25.84V27.64C25.84 26.1 27.08 24.84 28.62 24.84C29.3626 24.84 30.0748 25.135 30.5999 25.6601C31.125 26.1852 31.42 26.8974 31.42 27.64V37.5H37ZM13.76 17.62C14.6511 17.62 15.5058 17.266 16.1359 16.6359C16.766 16.0058 17.12 15.1511 17.12 14.26C17.12 12.4 15.62 10.88 13.76 10.88C12.8636 10.88 12.0039 11.2361 11.37 11.87C10.7361 12.5039 10.38 13.3636 10.38 14.26C10.38 16.12 11.9 17.62 13.76 17.62ZM16.54 37.5V20.76H11V37.5H16.54Z" fill="#F9F9F9"/>
</svg>
