<svg width="19" height="32" viewBox="0 0 19 32" fill="none" xmlns="http://www.w3.org/2000/svg">
<path fill-rule="evenodd" clip-rule="evenodd" d="M5.30578 0.502496C4.7409 0.818047 4.0777 1.18924 3.83199 1.32736C3.58618 1.46547 2.62211 2.0059 1.68953 2.52838C0.483759 3.20386 0.0334103 3.50166 0.13103 3.55912C0.465854 3.75622 4.25084 5.88891 8.4848 8.26604C9.77597 8.99096 11.2505 9.82824 11.7616 10.1266L12.6909 10.6692L12.7165 14.1654C12.7307 16.0882 12.7568 17.6615 12.7747 17.6615C12.7926 17.6615 13.8155 17.0959 15.0477 16.4047C16.28 15.7135 17.5743 14.9914 17.924 14.8002C18.2737 14.6089 18.6589 14.391 18.7799 14.3159L19 14.1794V10.5855C19 7.38734 18.9829 6.98532 18.8444 6.93339C18.7076 6.88223 16.3731 5.57498 11.4193 2.77568C7.81564 0.739399 6.7111 0.118605 6.52848 0.0269752C6.36757 -0.0537737 6.15062 0.0306017 5.30578 0.502496ZM0.023728 14.2564V17.8191L1.61324 18.7074C2.48751 19.1959 3.85136 19.958 4.64406 20.401C5.43676 20.8441 6.10748 21.2415 6.13467 21.2844C6.21312 21.4083 6.33128 21.3356 3.05602 23.1771C2.54493 23.4644 1.6687 23.9512 1.1089 24.2588C0.549096 24.5663 0.0741047 24.8346 0.0534656 24.8547C-0.0159837 24.9225 -0.0187263 32.0266 0.0508208 31.9999C0.0885777 31.9853 0.196959 31.9463 0.291742 31.9131C0.386428 31.8799 1.38826 31.3299 2.51803 30.6909C3.6478 30.0517 4.97937 29.3016 5.47696 29.0239L6.38176 28.5187V24.9889C6.38176 21.6663 6.39183 21.4627 6.55293 21.5228C6.73702 21.5914 10.1968 23.3932 12.7747 24.8547L12.7165 28.5187H14.1344C14.4278 28.5187 15.3274 28.5187 16.5012 28.5187C17.7239 28.5187 18.2427 28.5187 18.8986 28.5187C18.8986 27.8983 18.9005 21.4123 18.8986 21.3515C18.8965 21.2906 18.2473 20.8842 17.4558 20.4484C16.6643 20.0127 15.4444 19.3319 14.745 18.9356C14.0456 18.5393 13.2973 18.1174 13.0821 17.9981C12.2891 17.5584 9.43635 15.9537 8.58261 15.4672C8.09842 15.1913 6.51381 14.2984 5.06124 13.4832C3.60868 12.6679 2.25599 11.9 2.05536 11.7768C1.85465 11.6536 1.67124 11.5528 1.64777 11.5528C1.62419 11.5528 1.2699 11.3595 0.860446 11.1233C0.450989 10.887 0.0951344 10.6938 0.0698001 10.6938C0.0444658 10.6938 0.023728 12.297 0.023728 14.2564Z" fill="#f9f9f9"/>
</svg>
