<svg width="16" height="16" viewBox="0 0 16 16" fill="none" xmlns="http://www.w3.org/2000/svg">
<g clip-path="url(#clip0_439_3011)">
<path d="M14.9415 7.79112C13.4437 5.02224 10.817 3.34668 7.91034 3.34668C5.00367 3.34668 2.37256 5.02224 0.888116 7.79112L0.763672 8.00001L0.879227 8.21335C2.37701 10.9822 5.00367 12.6578 7.91034 12.6578C10.817 12.6578 13.4481 11.0045 14.9415 8.21335L15.057 8.00001L14.9415 7.79112ZM7.91034 11.7467C5.40812 11.7467 3.11034 10.3511 1.77701 8.00001C3.11034 5.6489 5.40812 4.25335 7.91034 4.25335C10.4126 4.25335 12.6837 5.65335 14.0392 8.00001C12.6837 10.3511 10.4081 11.7467 7.91034 11.7467Z" fill="black"/>
<path d="M8.04031 4.96444C7.4377 4.96883 6.8499 5.15172 6.35116 5.48998C5.85243 5.82825 5.46512 6.30673 5.23816 6.86499C5.0112 7.42325 4.95477 8.03624 5.076 8.62656C5.19722 9.21687 5.49066 9.75801 5.91926 10.1817C6.34786 10.6053 6.89239 10.8924 7.48407 11.0067C8.07575 11.1211 8.68805 11.0575 9.24363 10.8241C9.79921 10.5906 10.2731 10.1978 10.6056 9.69514C10.938 9.1925 11.114 8.60262 11.1114 7.99999C11.1097 7.59885 11.0288 7.202 10.8734 6.83218C10.718 6.46236 10.4912 6.12683 10.2059 5.84484C9.92057 5.56284 9.58242 5.33992 9.21082 5.18884C8.83921 5.03777 8.44144 4.96151 8.04031 4.96444ZM8.04031 10.1733C7.61465 10.1689 7.19977 10.0389 6.84778 9.79946C6.4958 9.56006 6.2224 9.22198 6.06193 8.8277C5.90146 8.43342 5.86107 8.00051 5.94583 7.58335C6.03059 7.16618 6.23672 6.78337 6.53834 6.48298C6.83996 6.18258 7.22362 5.97801 7.64112 5.89495C8.05863 5.8119 8.49137 5.85406 8.88499 6.01614C9.27862 6.17822 9.61557 6.45299 9.85354 6.80595C10.0915 7.15891 10.2199 7.57431 10.2225 7.99999C10.2237 8.28648 10.168 8.57035 10.0587 8.83515C9.9493 9.09995 9.78847 9.3404 9.58547 9.54257C9.38248 9.74473 9.14137 9.90459 8.87613 10.0129C8.61089 10.1211 8.32679 10.1757 8.04031 10.1733Z" fill="black"/>
</g>
<defs>
<clipPath id="clip0_439_3011">
<rect width="16" height="16" fill="white"/>
</clipPath>
</defs>
</svg>
