<svg width="80" height="81" viewBox="0 0 80 81" fill="none" xmlns="http://www.w3.org/2000/svg">
<path d="M58.2332 20.7335C54.757 20.7947 51.4079 22.0509 48.749 24.2909C46.0901 26.531 44.2836 29.6182 43.6332 33.0335C40.3689 27.96 37.812 22.4649 36.0332 16.7002H28.4998V36.7002C28.4998 38.5921 27.7483 40.4065 26.4105 41.7442C25.0728 43.082 23.2584 43.8335 21.3665 43.8335C19.4746 43.8335 17.6602 43.082 16.3225 41.7442C14.9847 40.4065 14.2332 38.5921 14.2332 36.7002V16.7002L6.6665 16.8669V36.8669C6.68861 40.7567 8.25504 44.4784 11.0212 47.2134C13.7874 49.9483 17.5267 51.4723 21.4165 51.4502C25.3063 51.4281 29.0281 49.8617 31.763 47.0955C34.4979 44.3293 36.0219 40.59 35.9998 36.7002V33.3669C37.5991 36.5038 39.4379 39.5127 41.4998 42.3669L36.8998 64.4002H44.6332L47.9665 48.3669C51.0558 50.3522 54.6613 51.384 58.3332 51.3335C62.3733 51.3335 66.248 49.7286 69.1048 46.8718C71.9616 44.015 73.5665 40.1403 73.5665 36.1002C73.5665 32.0601 71.9616 28.1854 69.1048 25.3286C66.248 22.4718 62.3733 20.8669 58.3332 20.8669L58.2332 20.7335ZM58.2332 43.5002C55.1009 43.399 52.0992 42.2219 49.7332 40.1669L50.4998 37.1335V36.9669C51.0332 33.6335 52.6998 28.3002 58.3332 28.3002C59.3209 28.2914 60.3006 28.4778 61.2161 28.8487C62.1316 29.2196 62.9647 29.7677 63.6678 30.4614C64.3709 31.1552 64.93 31.9811 65.313 32.8915C65.6961 33.802 65.8955 34.7791 65.8998 35.7669C65.8284 37.7667 65.0131 39.668 63.6136 41.0983C62.214 42.5287 60.331 43.3852 58.3332 43.5002H58.2332Z" fill="black"/>
</svg>
