<svg width="16" height="16" viewBox="0 0 16 16" fill="none" xmlns="http://www.w3.org/2000/svg">
<g clip-path="url(#clip0_439_3010)">
<path d="M8.16466 4.96436C7.80497 4.96478 7.44824 5.0295 7.11133 5.15547L11.0224 9.06658C11.1501 8.72549 11.2148 8.36409 11.2136 7.99991C11.21 7.19361 10.8872 6.42153 10.3159 5.85264C9.74446 5.28374 8.97097 4.96435 8.16466 4.96436Z" fill="black"/>
<path d="M15.2409 7.79112C13.7431 5.02224 11.1164 3.34668 8.20975 3.34668C7.41835 3.34854 6.63226 3.47605 5.88086 3.72446L6.59642 4.44446C7.12346 4.30825 7.66539 4.23808 8.20975 4.23557C10.712 4.23557 12.9875 5.63112 14.3431 7.98223C13.8458 8.8545 13.1866 9.62383 12.4009 10.2489L13.032 10.88C13.9413 10.1464 14.6966 9.2401 15.2542 8.21335L15.3697 8.00001L15.2409 7.79112Z" fill="black"/>
<path d="M2.16526 2.56896L4.14748 4.55118C2.89456 5.3579 1.87055 6.47375 1.17415 7.79118L1.05859 8.00007L1.17415 8.2134C2.67193 10.9823 5.29859 12.6578 8.20526 12.6578C9.33977 12.6576 10.4596 12.4008 11.4808 11.9067L13.703 14.129L14.4808 13.4623L2.92526 1.90674L2.16526 2.56896ZM5.85415 6.25785C5.43834 6.84425 5.24345 7.55887 5.30398 8.27518C5.36451 8.99149 5.67655 9.66327 6.18486 10.1716C6.69317 10.6799 7.36496 10.9919 8.08126 11.0525C8.79757 11.113 9.51219 10.9181 10.0986 10.5023L10.8097 11.2134C9.9865 11.5653 9.10052 11.7467 8.20526 11.7467C5.70304 11.7467 3.42748 10.3512 2.07193 8.00007C2.72246 6.84817 3.65936 5.88372 4.79193 5.20007L5.85415 6.25785Z" fill="black"/>
</g>
<defs>
<clipPath id="clip0_439_3010">
<rect width="16" height="16" fill="white"/>
</clipPath>
</defs>
</svg>
